<svg id="svg" version="1.1" xmlns="http://www.w3.org/2000/svg" xmlns:xlink="http://www.w3.org/1999/xlink" width="400" height="400" viewBox="0, 0, 400,400"><g id="svgg"><path id="path0" d="M144.400 55.605 C 135.895 55.980,132.990 56.932,132.041 59.654 C 131.580 60.978,131.625 61.019,135.000 62.337 C 138.924 63.870,139.177 63.858,141.616 62.022 C 144.799 59.625,146.121 59.326,149.574 60.221 L 152.398 60.954 155.588 59.877 C 157.819 59.124,159.601 58.800,161.512 58.800 C 163.016 58.800,166.205 58.440,168.600 58.000 C 175.269 56.775,176.211 56.999,179.868 60.686 C 182.309 63.147,182.373 63.158,185.000 61.600 C 187.702 59.997,189.271 60.042,191.999 61.800 C 194.327 63.299,195.130 63.321,196.659 61.922 C 201.315 57.666,190.600 54.192,177.244 55.628 C 173.533 56.027,171.331 56.036,166.941 55.668 C 161.044 55.174,154.601 55.156,144.400 55.605 M121.161 61.605 C 117.825 62.169,115.600 63.865,115.600 65.843 C 115.600 66.887,120.448 70.000,122.073 70.000 C 123.511 70.000,129.850 63.351,129.478 62.232 C 129.178 61.332,124.750 60.998,121.161 61.605 M205.335 61.982 C 203.630 62.704,203.746 64.522,205.604 66.204 C 206.286 66.822,207.258 67.049,209.941 67.218 C 213.155 67.420,213.535 67.540,215.309 68.902 C 217.413 70.517,218.768 70.995,223.119 71.658 C 225.718 72.054,226.149 72.249,227.055 73.436 C 227.614 74.170,229.036 75.410,230.213 76.191 C 231.391 76.973,232.767 78.195,233.271 78.906 C 233.776 79.618,235.117 81.212,236.251 82.450 C 239.528 86.023,239.573 87.699,236.492 91.313 C 232.294 96.235,231.200 97.718,231.200 98.487 C 231.200 99.694,234.369 102.448,235.600 102.311 C 236.440 102.218,236.739 101.794,237.470 99.657 C 239.384 94.067,245.272 92.155,250.011 95.585 C 254.005 98.476,254.193 98.673,254.752 100.575 C 255.283 102.381,256.149 103.466,259.327 106.304 C 263.604 110.124,260.403 114.066,252.803 114.337 C 246.552 114.560,245.896 115.875,249.900 120.158 C 251.165 121.511,252.545 123.384,252.966 124.320 C 253.865 126.319,254.345 126.305,255.053 124.260 C 256.350 120.512,259.472 118.411,263.753 118.404 C 267.579 118.398,269.738 120.413,270.608 124.800 C 270.860 126.071,271.262 126.967,273.697 131.676 C 274.116 132.487,274.686 134.808,274.963 136.832 C 275.476 140.582,276.038 141.600,277.596 141.600 C 279.403 141.600,279.528 140.402,278.414 133.786 C 277.637 129.167,277.491 128.800,274.689 124.403 C 274.297 123.790,273.516 121.693,272.951 119.744 C 272.220 117.221,271.398 115.462,270.098 113.638 C 269.094 112.229,267.753 110.005,267.118 108.696 C 266.484 107.387,265.102 105.389,264.048 104.258 C 262.994 103.126,261.556 101.350,260.854 100.311 C 260.152 99.273,258.760 97.861,257.762 97.174 C 256.763 96.487,255.408 95.050,254.750 93.981 C 254.092 92.912,252.933 91.653,252.173 91.184 C 251.414 90.714,250.317 89.491,249.735 88.465 C 248.333 85.993,243.592 81.132,240.600 79.100 C 239.280 78.203,237.536 76.879,236.724 76.157 C 234.857 74.498,233.778 73.951,229.754 72.622 C 227.311 71.815,226.375 71.301,225.969 70.542 C 225.248 69.195,222.844 67.859,219.225 66.796 C 217.184 66.196,215.678 65.440,214.425 64.386 C 211.796 62.175,207.539 61.049,205.335 61.982 M107.318 67.635 C 106.613 67.843,104.945 69.037,103.610 70.287 C 102.226 71.584,100.285 72.930,99.092 73.420 C 95.920 74.721,87.752 80.189,84.600 83.119 C 78.481 88.810,74.883 92.382,73.589 94.050 C 72.843 95.013,71.389 96.739,70.358 97.886 C 69.328 99.033,67.806 101.193,66.977 102.686 C 66.148 104.179,64.708 106.390,63.777 107.600 C 62.846 108.810,61.681 110.610,61.189 111.600 C 60.697 112.590,59.515 114.610,58.563 116.089 C 57.610 117.568,56.296 120.291,55.644 122.141 C 54.991 123.990,53.642 127.125,52.646 129.108 C 50.840 132.703,50.573 133.758,49.583 141.189 C 49.335 143.052,48.590 146.652,47.927 149.189 L 46.723 153.800 46.920 163.000 C 47.120 172.345,47.534 175.415,49.063 178.900 C 49.893 180.791,49.929 180.787,52.152 178.500 C 54.163 176.432,54.313 175.787,53.387 173.164 C 52.727 171.294,52.814 170.466,54.079 166.568 L 54.868 164.137 53.834 161.680 C 52.512 158.541,52.534 157.525,54.000 153.864 C 55.509 150.094,55.561 147.716,54.200 144.638 C 52.434 140.645,52.850 138.796,55.988 136.682 C 57.219 135.853,58.852 134.102,60.372 131.981 L 62.793 128.600 62.797 125.283 L 62.800 121.966 64.544 120.083 C 66.655 117.804,66.976 117.213,68.421 112.938 C 69.667 109.252,70.338 108.168,73.606 104.562 C 75.216 102.784,76.015 101.484,76.553 99.762 C 77.130 97.913,77.780 96.914,79.545 95.165 C 80.785 93.936,82.479 92.096,83.309 91.078 C 86.612 87.025,93.087 88.071,95.200 92.999 C 96.650 96.382,99.150 96.976,103.206 94.900 C 106.899 93.010,106.869 92.738,102.609 89.451 C 99.562 87.100,97.776 81.170,99.700 79.793 C 102.518 77.776,105.279 76.175,107.373 75.344 C 110.756 74.001,113.295 71.200,113.667 68.400 C 113.817 67.272,110.072 66.821,107.318 67.635 M155.762 72.461 C 155.344 73.137,156.754 74.000,158.276 74.000 C 159.172 74.000,159.600 73.811,159.600 73.414 C 159.600 72.234,156.395 71.438,155.762 72.461 M159.800 87.472 C 159.360 87.570,157.407 88.192,155.459 88.852 C 153.434 89.539,149.924 90.307,147.259 90.645 C 141.456 91.382,140.683 91.629,137.381 93.798 C 135.913 94.762,133.370 96.040,131.729 96.639 C 129.818 97.336,128.072 98.326,126.873 99.391 C 125.843 100.307,124.100 101.665,123.000 102.410 C 121.026 103.746,117.990 106.192,113.502 110.062 C 111.140 112.099,105.986 118.124,102.800 122.574 C 101.810 123.957,100.251 126.009,99.336 127.135 C 98.376 128.315,97.313 130.260,96.824 131.728 C 96.358 133.129,95.356 135.248,94.598 136.437 C 92.175 140.237,91.578 141.870,90.988 146.304 C 89.736 155.706,90.730 157.972,93.586 152.229 C 95.126 149.131,100.232 143.983,102.961 142.776 C 109.387 139.934,132.226 140.097,136.682 143.017 C 139.101 144.602,142.626 150.890,143.419 155.033 C 144.235 159.301,145.247 159.307,146.639 155.053 C 148.877 148.215,154.566 143.002,161.128 141.778 C 171.983 139.752,174.662 136.771,166.484 135.816 C 162.486 135.348,155.276 132.298,154.166 130.604 C 152.411 127.926,153.584 125.732,157.808 123.793 C 161.437 122.127,161.766 121.712,161.451 119.198 C 161.313 118.099,161.090 116.330,160.955 115.266 C 160.623 112.637,161.429 111.218,164.399 109.200 C 167.970 106.776,167.907 104.207,164.227 102.143 C 159.447 99.462,156.351 101.067,155.410 106.714 C 154.772 110.549,152.556 111.692,150.979 109.000 C 147.559 103.164,149.952 98.694,157.541 96.747 C 165.679 94.660,167.870 85.665,159.800 87.472 M188.560 90.306 C 187.586 90.956,187.200 92.512,187.200 95.787 C 187.200 99.569,186.847 100.652,184.608 103.744 C 183.834 104.813,183.200 106.051,183.200 106.496 C 183.200 108.516,187.023 112.400,189.011 112.400 C 190.415 112.400,191.878 107.773,191.442 104.716 C 190.644 99.114,190.663 98.662,191.741 97.500 C 194.576 94.445,197.687 97.310,196.991 102.336 C 196.184 108.172,196.635 110.192,199.424 113.226 C 201.781 115.790,201.918 116.168,200.977 117.511 C 200.151 118.690,198.589 118.658,195.600 117.400 C 192.224 115.979,191.443 116.071,190.003 118.060 C 187.924 120.929,188.485 122.303,192.173 123.375 C 201.309 126.031,196.666 134.154,185.403 135.220 C 176.512 136.061,175.860 139.826,184.328 141.432 C 188.938 142.307,189.902 142.719,192.200 144.800 C 196.221 148.441,197.329 148.345,201.556 143.985 C 203.498 141.984,204.625 141.151,205.800 140.852 C 208.532 140.156,224.111 140.549,227.332 141.396 C 229.947 142.083,230.279 142.083,235.050 141.417 C 238.374 140.952,241.062 140.804,243.117 140.972 C 249.501 141.495,251.249 137.012,246.454 132.415 C 244.857 130.884,244.305 129.988,243.650 127.867 C 242.618 124.526,241.953 123.253,240.584 122.000 C 239.983 121.450,238.857 120.010,238.082 118.800 C 236.896 116.948,235.293 115.149,230.400 110.183 C 227.765 107.509,222.743 103.186,221.600 102.607 C 220.830 102.218,219.030 101.041,217.600 99.992 C 216.170 98.943,213.583 97.536,211.852 96.866 C 210.120 96.196,207.655 94.912,206.373 94.013 C 203.867 92.256,202.149 91.754,194.800 90.634 C 190.141 89.925,189.205 89.875,188.560 90.306 M279.627 150.239 C 278.116 151.510,278.182 152.354,279.986 154.845 C 281.643 157.131,281.781 158.281,280.790 161.543 C 279.974 164.230,279.963 164.469,280.566 166.544 C 282.122 171.894,280.584 175.656,275.206 179.656 C 273.485 180.937,273.720 181.323,277.643 183.653 C 283.518 187.143,283.810 186.340,283.768 166.796 C 283.729 148.696,283.335 147.119,279.627 150.239 M198.855 157.945 C 198.409 158.391,197.784 159.621,197.466 160.678 C 197.148 161.735,196.169 164.490,195.290 166.800 C 193.571 171.316,193.466 171.958,192.603 183.251 C 191.944 191.878,191.514 193.347,188.453 197.429 C 184.406 202.825,183.948 203.274,181.230 204.499 C 179.783 205.151,177.790 206.051,176.800 206.499 C 171.154 209.052,171.774 208.919,164.574 209.108 C 156.105 209.331,154.483 209.016,148.454 205.982 C 142.848 203.161,140.686 200.039,138.979 192.300 C 138.846 191.695,138.590 191.200,138.411 191.200 C 137.639 191.200,133.733 195.986,133.208 197.575 C 131.884 201.588,130.920 202.506,124.997 205.394 C 116.934 209.326,117.216 209.255,108.542 209.544 C 97.877 209.900,97.582 210.198,101.751 216.403 C 106.520 223.501,116.147 233.270,122.500 237.458 C 126.527 240.114,127.118 241.794,125.585 246.237 C 123.714 251.661,127.048 252.405,132.473 247.775 C 133.902 246.555,135.472 245.709,137.655 244.982 C 139.700 244.301,141.449 243.385,142.694 242.343 C 145.120 240.313,146.048 239.829,149.823 238.630 C 151.516 238.093,153.557 237.126,154.358 236.482 C 156.196 235.005,158.592 233.784,160.400 233.402 C 163.305 232.790,165.463 231.872,167.400 230.425 C 170.279 228.274,170.634 228.128,175.235 227.213 C 179.809 226.303,181.719 225.598,184.329 223.858 C 186.502 222.408,188.451 221.820,193.000 221.244 C 198.483 220.548,200.293 220.042,204.105 218.138 C 208.310 216.037,211.301 215.375,218.200 215.017 C 228.612 214.477,232.355 212.990,229.560 210.503 C 228.879 209.896,227.426 208.171,226.333 206.668 C 222.995 202.081,220.572 201.738,217.305 205.390 C 213.947 209.143,213.175 209.417,206.283 209.300 C 196.815 209.139,195.921 208.297,195.670 199.300 C 195.480 192.501,196.016 188.649,198.006 182.534 C 202.187 169.681,202.726 154.074,198.855 157.945 M115.604 159.593 C 114.475 161.702,115.874 164.774,117.500 163.759 C 118.429 163.179,119.094 160.557,118.538 159.669 C 117.891 158.635,116.141 158.590,115.604 159.593 M253.256 164.651 C 253.005 166.383,252.611 169.285,252.381 171.099 C 252.150 172.914,251.602 175.704,251.163 177.299 C 247.532 190.475,247.647 192.148,251.998 189.401 C 255.273 187.334,255.351 186.768,254.635 170.400 C 254.246 161.511,253.913 160.124,253.256 164.651 M140.333 164.367 C 139.362 165.221,137.405 166.715,135.984 167.686 C 132.705 169.927,132.584 170.575,134.967 173.124 C 137.730 176.078,138.397 177.962,138.682 183.615 C 138.843 186.829,139.069 188.378,139.362 188.282 C 140.899 187.778,143.821 163.878,142.449 163.030 C 142.256 162.911,141.303 163.512,140.333 164.367 M87.050 172.050 C 86.493 174.836,88.212 183.695,89.983 187.166 C 92.292 191.692,109.557 192.367,112.118 188.032 C 114.606 183.820,112.117 181.249,105.076 180.760 C 98.067 180.273,97.353 179.949,92.400 175.007 C 87.802 170.419,87.419 170.207,87.050 172.050 M49.834 183.700 C 48.768 188.980,50.091 198.605,52.560 203.520 C 53.542 205.476,54.642 208.219,55.004 209.614 C 55.747 212.482,56.801 214.749,58.346 216.800 C 58.926 217.570,60.300 219.910,61.400 222.000 C 63.739 226.444,64.167 226.650,67.320 224.846 C 70.900 222.797,71.983 222.834,76.505 225.158 C 78.652 226.262,81.047 227.285,81.827 227.432 C 82.995 227.651,83.353 227.966,83.854 229.218 C 84.502 230.837,85.462 231.498,86.158 230.802 C 86.672 230.288,86.116 229.260,84.982 228.627 C 83.744 227.935,83.294 227.133,83.031 225.147 C 82.627 222.103,81.310 218.819,79.570 216.513 C 77.626 213.939,77.125 212.806,76.026 208.501 C 75.448 206.237,74.533 204.151,73.051 201.716 C 71.874 199.782,70.416 197.210,69.810 196.000 C 67.511 191.407,64.762 191.107,60.474 194.980 C 55.786 199.216,50.954 195.742,54.621 190.772 C 56.218 188.607,55.950 187.361,53.364 184.915 C 50.919 182.604,50.111 182.325,49.834 183.700 M272.000 194.099 C 268.401 195.692,267.996 195.781,264.334 195.790 C 262.208 195.796,260.402 195.890,260.321 196.000 C 260.240 196.110,259.938 196.508,259.651 196.884 C 258.919 197.842,257.615 203.065,257.607 205.071 C 257.598 207.319,258.746 208.191,262.510 208.794 C 273.358 210.532,269.894 214.054,256.200 215.210 C 246.758 216.007,245.192 216.856,245.961 220.763 C 246.651 224.274,246.061 226.095,243.140 229.469 C 242.220 230.531,240.691 232.612,239.741 234.093 C 238.792 235.574,237.684 237.104,237.281 237.493 C 232.814 241.799,229.318 244.842,227.000 246.443 C 225.460 247.506,223.180 249.146,221.933 250.088 C 220.686 251.030,218.706 252.390,217.533 253.110 C 216.360 253.831,214.528 255.044,213.463 255.805 C 212.398 256.567,210.328 257.559,208.863 258.009 C 207.398 258.459,204.616 259.739,202.680 260.853 C 199.749 262.540,198.478 263.008,195.080 263.653 C 189.477 264.717,183.258 266.194,179.200 267.427 C 176.256 268.321,174.702 268.502,167.609 268.775 C 157.029 269.184,155.945 268.848,154.581 264.742 C 153.522 261.553,150.328 261.853,145.440 265.599 C 144.067 266.651,141.936 268.081,140.705 268.775 C 135.749 271.573,135.545 275.752,140.285 277.367 C 143.834 278.576,151.035 278.902,169.200 278.672 C 188.589 278.427,189.169 278.362,194.843 275.761 C 197.601 274.497,200.133 273.707,203.706 272.995 C 209.262 271.890,209.964 271.639,213.405 269.535 C 214.722 268.729,217.060 267.669,218.600 267.180 C 222.123 266.060,223.394 265.429,225.401 263.804 C 226.282 263.091,228.459 261.776,230.238 260.881 C 232.018 259.987,233.997 258.815,234.637 258.278 C 235.277 257.741,236.955 256.573,238.367 255.681 C 242.901 252.818,258.460 237.715,261.114 233.600 C 261.895 232.390,263.113 230.680,263.821 229.800 C 264.529 228.920,265.855 226.707,266.768 224.882 C 267.680 223.058,269.096 220.634,269.913 219.495 C 271.342 217.506,271.400 217.297,271.405 214.099 L 271.410 210.773 274.345 207.890 C 278.023 204.277,278.231 203.858,278.806 198.917 C 279.609 192.004,278.504 191.222,272.000 194.099 M231.456 221.629 C 230.607 221.836,228.447 222.804,226.656 223.780 C 224.014 225.221,222.571 225.704,219.000 226.348 C 213.608 227.320,212.737 227.643,210.181 229.615 C 207.763 231.480,206.212 232.164,202.953 232.803 C 200.545 233.276,199.594 233.738,195.814 236.279 C 194.767 236.982,192.430 238.029,190.620 238.605 C 188.257 239.358,186.720 240.154,185.165 241.434 C 183.968 242.419,181.575 243.793,179.812 244.508 C 177.418 245.478,175.974 246.404,174.012 248.227 C 172.576 249.561,170.514 251.062,169.432 251.561 C 166.444 252.938,167.629 253.249,174.800 252.967 C 179.615 252.778,182.072 252.468,185.800 251.578 C 188.440 250.948,192.843 250.134,195.583 249.769 C 201.419 248.992,202.745 248.572,206.787 246.222 C 208.444 245.258,211.399 243.910,213.354 243.227 C 215.627 242.432,217.573 241.433,218.754 240.455 C 219.769 239.614,221.590 238.279,222.800 237.489 C 226.711 234.937,236.400 224.778,236.400 223.230 C 236.400 221.695,234.159 220.969,231.456 221.629 M90.634 237.056 C 90.362 237.765,91.123 239.175,92.687 240.859 C 93.228 241.441,94.347 243.691,95.173 245.859 C 95.999 248.027,97.603 251.412,98.737 253.383 C 99.872 255.354,100.802 257.244,100.804 257.583 C 100.843 263.749,107.449 265.001,113.069 259.909 C 114.488 258.622,116.737 257.043,118.067 256.399 C 123.032 253.994,123.041 253.015,118.100 252.685 C 113.040 252.347,109.860 251.241,107.195 248.893 C 105.988 247.829,104.370 246.531,103.600 246.008 C 102.830 245.484,101.372 244.297,100.360 243.368 C 99.348 242.440,97.512 241.204,96.281 240.621 C 94.832 239.935,93.749 239.088,93.213 238.220 C 92.527 237.110,91.667 236.400,91.010 236.400 C 90.942 236.400,90.772 236.695,90.634 237.056 " stroke="none" fill="#e7f0e8" fill-rule="evenodd"></path><path id="path1" d="M-0.000 176.323 L -0.000 352.646 1.100 353.114 L 2.200 353.582 1.100 353.446 C 0.495 353.372,-0.000 353.421,-0.000 353.555 C -0.000 353.690,77.895 353.800,173.100 353.800 C 268.305 353.800,345.480 353.700,344.600 353.577 L 343.000 353.354 345.000 353.027 C 349.679 352.262,352.643 349.222,352.559 345.275 C 352.536 344.216,352.651 343.753,352.855 344.075 C 353.038 344.364,353.212 344.420,353.241 344.200 C 353.271 343.980,353.408 344.327,353.547 344.971 C 353.686 345.615,353.823 268.260,353.850 173.071 C 353.878 77.882,353.768 0.000,353.606 0.000 C 353.444 0.000,353.402 0.477,353.513 1.059 C 353.653 1.791,353.574 2.031,353.258 1.836 C 353.006 1.680,352.800 1.203,352.800 0.776 C 352.800 0.009,350.745 0.000,176.400 0.000 L 0.000 0.000 -0.000 176.323 M352.528 2.388 C 352.232 2.714,351.640 1.458,351.895 1.046 C 352.029 0.830,352.264 1.001,352.419 1.427 C 352.573 1.852,352.622 2.285,352.528 2.388 M172.200 48.024 C 174.840 48.253,177.990 48.685,179.200 48.983 C 182.424 49.778,185.757 50.287,193.626 51.183 C 201.329 52.061,202.612 52.402,206.270 54.552 C 207.728 55.409,210.349 56.421,212.670 57.023 C 217.991 58.404,218.670 58.683,221.130 60.499 C 223.229 62.048,224.745 62.804,228.507 64.176 C 229.557 64.559,231.357 65.639,232.509 66.577 C 233.660 67.515,235.404 68.692,236.383 69.191 C 237.363 69.691,239.162 71.041,240.382 72.192 C 241.602 73.342,243.680 74.957,245.000 75.780 C 248.364 77.878,261.901 91.595,264.283 95.318 C 265.297 96.903,266.899 98.953,267.844 99.874 C 268.788 100.795,270.043 102.502,270.633 103.666 C 271.224 104.831,272.559 107.047,273.602 108.592 C 274.644 110.136,275.972 112.750,276.553 114.400 C 277.134 116.050,278.478 118.660,279.538 120.200 C 281.906 123.639,281.803 123.350,282.800 129.308 C 283.495 133.462,283.859 134.616,285.214 136.962 C 288.490 142.630,289.036 148.062,288.658 171.200 C 288.384 187.971,288.122 189.903,285.443 194.983 C 283.496 198.674,283.301 199.587,284.118 201.200 L 284.624 202.200 291.212 202.246 C 301.828 202.320,306.184 203.469,305.922 206.127 C 305.736 208.008,304.100 208.725,298.339 209.449 C 290.380 210.448,289.510 210.498,287.251 210.085 C 282.880 209.285,278.715 212.344,276.204 218.200 C 275.449 219.960,274.172 222.210,273.366 223.200 C 272.560 224.190,271.136 226.620,270.201 228.600 C 269.071 230.995,267.936 232.726,266.810 233.772 C 265.880 234.637,264.662 236.077,264.104 236.972 C 262.876 238.942,245.199 256.532,243.132 257.840 C 242.325 258.351,240.562 259.754,239.213 260.957 C 237.581 262.413,235.836 263.507,233.995 264.230 C 232.416 264.849,230.279 266.119,229.013 267.189 C 227.463 268.499,225.831 269.399,223.583 270.181 C 221.815 270.797,219.251 272.024,217.884 272.909 C 214.500 275.102,213.389 275.518,208.647 276.373 C 205.353 276.967,203.774 277.514,200.576 279.166 C 195.644 281.714,195.066 281.821,181.800 282.624 C 166.705 283.537,140.198 282.913,131.835 281.448 C 127.563 280.699,126.308 281.115,122.367 284.586 C 121.358 285.474,119.493 286.740,118.222 287.400 C 116.951 288.060,114.978 289.413,113.839 290.407 C 112.699 291.400,110.514 292.874,108.983 293.683 C 107.453 294.491,105.136 296.056,103.835 297.161 C 97.875 302.224,92.148 298.367,88.552 286.870 C 87.800 284.466,86.587 281.635,85.779 280.398 C 84.989 279.189,83.653 276.850,82.809 275.200 C 81.965 273.550,80.268 271.043,79.037 269.630 C 77.807 268.216,76.800 266.925,76.800 266.761 C 76.800 265.544,59.181 248.532,55.054 245.764 C 48.124 241.115,47.824 235.510,54.251 230.762 C 57.944 228.034,57.948 225.284,54.265 221.187 C 52.792 219.549,52.347 218.630,51.433 215.334 C 50.694 212.672,49.890 210.785,48.914 209.428 C 46.620 206.234,45.930 204.181,44.982 197.722 C 44.174 192.212,43.909 191.259,42.145 187.522 L 40.200 183.400 40.200 167.000 L 40.200 150.600 41.653 147.200 C 43.322 143.293,44.499 138.797,45.423 132.800 C 46.140 128.146,46.877 126.164,48.753 123.837 C 49.525 122.880,50.417 120.942,51.055 118.837 C 52.324 114.653,52.849 113.590,54.621 111.629 C 55.378 110.792,56.641 108.687,57.427 106.953 C 58.214 105.219,59.627 102.810,60.568 101.600 C 61.509 100.390,62.782 98.590,63.397 97.600 C 64.528 95.779,65.791 94.415,74.287 85.848 C 81.149 78.930,83.580 76.662,85.600 75.295 C 86.590 74.625,88.030 73.412,88.800 72.601 C 89.570 71.790,91.731 70.353,93.601 69.408 C 95.472 68.464,97.899 66.950,98.995 66.045 C 100.091 65.139,102.250 63.927,103.794 63.352 C 105.337 62.776,107.956 61.430,109.612 60.360 C 112.042 58.791,113.516 58.188,117.234 57.242 C 120.323 56.457,122.629 55.594,124.222 54.628 C 127.553 52.608,130.721 51.725,136.451 51.220 C 141.761 50.752,151.508 49.563,159.600 48.396 C 165.694 47.517,166.184 47.503,172.200 48.024 M178.154 93.291 C 175.916 95.017,175.448 96.971,176.862 98.675 C 178.140 100.214,181.775 98.208,182.244 95.705 C 182.814 92.667,180.631 91.379,178.154 93.291 M168.262 116.331 C 167.772 116.873,167.600 117.829,167.600 120.005 C 167.600 121.623,167.304 124.004,166.941 125.295 C 166.131 128.183,166.365 128.495,169.494 128.696 C 174.725 129.032,175.519 127.522,173.383 121.296 C 171.435 115.614,170.091 114.311,168.262 116.331 M41.436 286.596 C 42.516 286.923,43.708 287.193,44.085 287.196 C 47.643 287.218,50.757 289.800,53.013 294.600 C 53.944 296.580,55.283 298.740,55.988 299.400 C 59.165 302.371,59.584 309.924,56.705 312.313 C 55.939 312.948,54.463 312.754,54.456 312.017 C 54.450 311.325,53.282 304.946,52.984 303.970 C 52.878 303.624,52.296 302.867,51.692 302.288 L 50.594 301.236 47.197 302.420 C 39.749 305.018,39.295 307.491,45.613 311.054 C 51.845 314.569,53.141 318.751,49.194 322.606 C 48.317 323.462,47.600 324.014,47.600 323.832 C 47.600 323.651,47.348 323.711,47.040 323.967 C 46.262 324.612,41.592 324.886,41.710 324.279 C 41.760 324.026,41.395 323.757,40.900 323.682 C 40.405 323.606,40.000 323.308,40.000 323.019 C 40.000 322.730,39.685 322.382,39.300 322.246 C 38.915 322.111,38.392 321.900,38.137 321.779 C 37.881 321.657,37.278 322.264,36.786 323.139 C 35.056 326.218,28.546 325.986,26.651 322.779 C 25.930 321.559,23.062 318.950,21.178 317.800 C 18.327 316.060,17.530 312.971,19.016 309.421 C 19.534 308.184,19.611 307.277,19.372 305.221 C 18.742 299.790,20.182 297.226,23.886 297.182 C 26.851 297.147,28.246 295.933,30.598 291.343 C 32.984 286.686,36.565 285.118,41.436 286.596 M353.014 347.000 C 351.896 350.207,351.112 351.218,348.945 352.243 C 347.737 352.815,346.843 353.377,346.959 353.492 C 348.262 354.796,354.198 348.631,353.485 346.715 C 353.359 346.378,353.197 346.476,353.014 347.000 " stroke="none" fill="#148d08" fill-rule="evenodd"></path><path id="path2" d="M171.330 88.152 C 168.454 89.092,166.899 90.332,165.343 92.924 C 164.526 94.286,163.529 95.829,163.129 96.354 C 161.630 98.316,162.541 99.861,166.322 101.774 C 171.873 104.583,172.471 109.202,167.563 111.353 C 163.461 113.152,162.585 115.073,163.800 119.600 C 164.125 120.810,164.399 122.430,164.409 123.200 L 164.427 124.600 165.213 123.656 C 165.843 122.900,166.001 122.102,166.006 119.656 C 166.013 115.809,166.504 114.832,168.935 113.825 C 171.763 112.653,172.657 113.270,173.857 117.218 C 175.881 123.879,179.397 123.713,179.553 116.949 C 179.607 114.605,180.269 113.780,181.790 114.162 C 183.282 114.536,184.137 116.092,183.844 117.897 C 182.756 124.594,183.092 124.746,186.536 119.114 C 187.728 117.165,187.416 115.472,185.583 113.946 C 182.168 111.104,180.879 109.772,180.795 109.000 C 180.524 106.507,180.807 105.895,183.359 103.451 C 191.491 95.663,182.671 84.445,171.330 88.152 M182.059 93.369 C 183.106 95.667,181.377 98.627,178.739 99.055 C 177.115 99.318,176.453 98.720,176.172 96.736 C 175.750 93.759,180.896 90.817,182.059 93.369 M176.806 107.407 C 177.888 108.711,177.531 111.000,176.246 111.000 C 174.850 111.000,174.369 109.983,174.874 108.100 C 175.249 106.701,175.997 106.433,176.806 107.407 M174.200 131.200 L 172.600 131.486 174.600 131.537 C 175.700 131.565,176.870 131.413,177.200 131.200 C 177.911 130.741,176.766 130.741,174.200 131.200 M281.265 199.564 C 280.459 202.219,279.043 204.195,276.706 205.925 C 272.492 209.045,269.671 213.200,271.767 213.200 C 272.654 213.200,273.998 215.731,274.022 217.447 L 274.043 219.000 275.283 216.431 C 277.875 211.060,282.468 207.519,286.726 207.609 C 290.272 207.683,294.000 206.847,294.000 205.978 C 294.000 204.836,292.010 204.240,288.100 204.210 C 283.486 204.174,282.361 203.378,282.011 199.902 L 281.800 197.800 281.265 199.564 M257.967 208.165 C 257.875 208.255,255.640 208.533,253.000 208.783 C 235.761 210.412,231.803 211.079,230.114 212.644 C 228.782 213.879,226.582 214.353,220.000 214.821 C 210.823 215.474,208.729 215.903,204.421 218.007 C 200.258 220.042,198.461 220.551,193.000 221.244 C 188.451 221.820,186.502 222.408,184.329 223.858 C 181.719 225.598,179.809 226.303,175.235 227.213 C 170.634 228.128,170.279 228.274,167.400 230.425 C 165.463 231.872,163.305 232.790,160.400 233.402 C 158.592 233.784,156.196 235.005,154.358 236.482 C 153.557 237.126,151.516 238.093,149.823 238.630 C 146.048 239.829,145.120 240.313,142.694 242.343 C 141.449 243.385,139.700 244.301,137.655 244.982 C 135.467 245.710,133.903 246.554,132.463 247.783 C 131.331 248.750,129.368 249.926,128.102 250.397 C 125.229 251.466,122.676 252.938,121.501 254.203 C 121.006 254.737,119.486 255.713,118.124 256.372 C 116.763 257.031,114.488 258.622,113.069 259.909 C 107.449 265.001,100.843 263.749,100.804 257.583 C 100.802 257.244,99.872 255.354,98.737 253.383 C 97.603 251.412,95.999 248.027,95.173 245.859 C 94.347 243.691,93.224 241.441,92.677 240.859 C 92.130 240.277,90.975 238.695,90.110 237.344 C 88.360 234.612,81.660 227.201,80.938 227.200 C 80.685 227.200,78.705 226.289,76.538 225.176 C 71.992 222.838,70.903 222.796,67.369 224.818 C 66.232 225.468,64.965 226.003,64.551 226.006 C 64.138 226.009,63.080 226.286,62.200 226.620 C 61.320 226.955,60.314 227.326,59.964 227.444 C 59.614 227.563,59.033 228.321,58.673 229.130 C 58.292 229.984,57.088 231.314,55.800 232.305 C 50.672 236.246,51.289 240.483,57.690 245.292 C 61.527 248.175,75.391 262.051,78.181 265.800 C 79.328 267.340,80.570 268.851,80.943 269.158 C 81.316 269.465,82.618 271.355,83.836 273.358 C 85.053 275.361,86.648 277.948,87.380 279.107 C 88.112 280.266,89.176 282.696,89.745 284.507 C 90.973 288.415,94.745 295.430,96.299 296.698 C 98.226 298.270,102.281 297.257,103.782 294.829 C 103.926 294.596,105.594 293.490,107.488 292.371 C 109.382 291.252,111.757 289.660,112.766 288.832 C 113.775 288.005,115.419 286.862,116.420 286.293 C 117.422 285.725,119.132 284.513,120.220 283.601 C 122.936 281.327,127.243 279.204,129.736 278.912 C 132.043 278.643,135.677 275.304,137.429 271.846 C 138.034 270.653,138.910 269.828,140.660 268.805 C 141.981 268.032,144.187 266.548,145.562 265.507 C 147.142 264.310,149.044 263.310,150.731 262.791 C 152.779 262.160,153.865 261.520,155.400 260.043 C 156.500 258.984,158.794 257.379,160.497 256.476 C 162.201 255.574,164.000 254.459,164.494 253.998 C 165.592 252.976,168.004 251.605,170.380 250.655 C 171.354 250.265,173.163 249.013,174.398 247.873 C 175.964 246.428,177.608 245.408,179.823 244.508 C 181.570 243.797,183.974 242.414,185.165 241.434 C 186.720 240.154,188.257 239.358,190.620 238.605 C 192.430 238.029,194.767 236.982,195.814 236.279 C 199.594 233.738,200.545 233.276,202.953 232.803 C 206.212 232.164,207.763 231.480,210.181 229.615 C 212.732 227.647,213.612 227.319,218.927 226.361 C 222.473 225.721,223.954 225.216,227.127 223.564 L 231.000 221.547 235.600 221.414 C 241.318 221.250,244.779 220.162,245.828 218.200 C 246.685 216.596,248.946 215.946,256.320 215.182 C 266.270 214.152,269.563 212.973,268.425 210.847 C 267.950 209.959,266.744 209.555,261.760 208.613 C 258.149 207.930,258.198 207.936,257.967 208.165 M264.184 233.448 C 263.533 234.226,262.754 235.344,262.452 235.931 C 261.823 237.161,262.059 236.932,264.165 234.278 C 265.930 232.052,265.947 231.342,264.184 233.448 M259.785 239.117 C 258.676 240.153,257.423 241.450,256.999 242.000 C 256.576 242.550,257.528 241.745,259.115 240.211 C 261.724 237.688,262.213 237.163,261.900 237.217 C 261.845 237.227,260.893 238.082,259.785 239.117 M254.000 244.961 C 252.790 245.926,251.366 247.320,250.834 248.058 C 250.183 248.963,250.769 248.563,252.634 246.827 C 254.156 245.412,255.664 244.017,255.986 243.727 C 257.291 242.553,256.061 243.317,254.000 244.961 M245.911 252.854 C 243.533 255.178,243.517 255.207,245.600 253.391 C 248.746 250.649,249.003 250.400,248.696 250.400 C 248.545 250.400,247.291 251.504,245.911 252.854 M240.100 257.574 C 239.209 258.219,238.353 258.952,238.198 259.203 C 237.982 259.553,241.112 257.354,241.967 256.556 C 242.587 255.976,241.447 256.598,240.100 257.574 M230.326 263.614 C 229.515 264.042,228.746 264.564,228.616 264.773 C 228.431 265.074,231.676 263.481,232.367 262.932 C 232.896 262.512,231.581 262.951,230.326 263.614 M217.900 270.229 C 216.349 271.070,216.525 271.361,218.100 270.559 C 219.608 269.793,219.875 269.594,219.367 269.616 C 219.165 269.625,218.505 269.901,217.900 270.229 " stroke="none" fill="#c99d5b" fill-rule="evenodd"></path><path id="path3" d="M160.400 51.039 C 160.070 51.119,154.040 51.644,147.000 52.206 C 132.321 53.377,132.341 53.374,127.000 56.009 C 124.322 57.330,121.744 58.251,119.200 58.795 C 116.449 59.383,114.793 59.998,113.200 61.025 C 110.788 62.579,107.217 64.330,104.368 65.355 C 103.360 65.718,101.562 66.845,100.372 67.861 C 99.182 68.876,96.947 70.292,95.405 71.007 C 88.976 73.986,69.752 91.793,64.967 99.200 C 64.328 100.190,63.020 102.080,62.061 103.400 C 61.102 104.720,59.816 106.905,59.204 108.255 C 58.592 109.606,57.177 111.902,56.061 113.358 C 54.297 115.661,52.400 120.057,52.400 121.844 C 52.400 122.041,51.498 123.731,50.395 125.601 C 47.987 129.683,47.870 130.067,46.557 138.200 C 45.790 142.951,45.147 145.527,44.062 148.200 L 42.600 151.800 42.600 166.600 L 42.600 181.400 44.271 185.400 C 45.654 188.713,46.053 190.293,46.592 194.600 C 47.455 201.494,47.720 202.414,49.991 206.400 C 51.056 208.270,52.329 211.150,52.820 212.800 C 53.910 216.461,54.521 217.731,56.191 219.800 C 57.966 222.000,58.674 223.483,59.007 225.705 C 59.299 227.658,59.516 227.854,60.705 227.243 C 61.087 227.047,61.879 226.698,62.465 226.468 L 63.530 226.049 61.464 222.124 C 60.327 219.966,58.924 217.570,58.344 216.800 C 56.800 214.747,55.746 212.480,55.004 209.614 C 54.642 208.219,53.542 205.476,52.560 203.520 C 50.091 198.605,48.768 188.980,49.834 183.700 C 50.111 182.325,50.919 182.604,53.364 184.915 C 55.950 187.361,56.218 188.607,54.621 190.772 C 50.954 195.742,55.786 199.216,60.474 194.980 C 64.762 191.107,67.511 191.407,69.810 196.000 C 70.416 197.210,71.874 199.782,73.051 201.716 C 74.533 204.151,75.448 206.237,76.026 208.501 C 77.125 212.806,77.626 213.939,79.570 216.513 C 81.270 218.766,82.514 221.800,82.974 224.822 C 83.298 226.949,83.960 228.400,84.606 228.400 C 84.864 228.400,85.396 228.753,85.787 229.185 C 86.654 230.143,86.317 231.405,85.297 231.020 C 84.913 230.875,85.521 231.712,86.646 232.879 C 87.772 234.045,89.030 235.592,89.441 236.314 C 90.083 237.442,90.254 237.540,90.644 237.008 C 91.265 236.159,92.216 236.608,93.213 238.220 C 93.749 239.088,94.832 239.935,96.281 240.621 C 97.512 241.204,99.348 242.440,100.360 243.368 C 101.372 244.297,102.830 245.484,103.600 246.008 C 104.370 246.531,105.988 247.829,107.195 248.893 C 109.837 251.221,113.009 252.333,118.000 252.683 C 119.870 252.814,121.504 253.079,121.631 253.273 C 121.758 253.466,122.883 253.010,124.130 252.259 C 125.979 251.146,126.251 250.854,125.599 250.684 C 124.567 250.414,124.567 249.201,125.600 246.200 C 127.116 241.795,126.517 240.107,122.500 237.458 C 116.147 233.270,106.520 223.501,101.751 216.403 C 97.582 210.198,97.877 209.900,108.542 209.544 C 117.216 209.255,116.934 209.326,124.997 205.394 C 130.920 202.506,131.884 201.588,133.208 197.575 C 133.733 195.986,137.639 191.200,138.411 191.200 C 138.590 191.200,138.846 191.695,138.979 192.300 C 140.686 200.039,142.848 203.161,148.454 205.982 C 154.483 209.016,156.105 209.331,164.574 209.108 C 171.774 208.919,171.154 209.052,176.800 206.499 C 177.790 206.051,179.783 205.151,181.230 204.499 C 183.948 203.274,184.406 202.825,188.453 197.429 C 191.514 193.347,191.944 191.878,192.603 183.251 C 193.470 171.904,193.565 171.333,195.396 166.400 C 196.335 163.870,197.411 160.943,197.787 159.895 C 198.162 158.848,198.791 157.819,199.184 157.608 C 202.720 155.716,202.038 170.140,198.006 182.534 C 196.016 188.649,195.480 192.501,195.670 199.300 C 195.921 208.297,196.815 209.139,206.283 209.300 C 213.175 209.417,213.947 209.143,217.305 205.390 C 220.572 201.738,222.995 202.081,226.333 206.668 C 227.426 208.171,228.901 209.917,229.611 210.548 L 230.901 211.696 233.750 211.064 C 236.370 210.484,241.495 209.878,253.000 208.788 C 258.713 208.246,259.055 208.144,258.229 207.232 C 257.133 206.021,258.112 198.899,259.651 196.884 C 259.938 196.508,260.240 196.110,260.321 196.000 C 260.402 195.890,262.208 195.796,264.334 195.790 C 267.995 195.781,268.409 195.690,272.148 194.068 C 278.595 191.272,279.609 192.011,278.805 198.922 C 278.331 203.005,278.038 203.968,276.849 205.358 C 276.237 206.073,276.246 206.092,277.000 205.695 C 278.859 204.716,280.356 202.395,281.578 198.600 C 282.074 197.060,283.265 194.090,284.224 192.000 C 286.827 186.329,286.994 184.733,286.973 165.800 C 286.952 147.198,286.829 146.141,283.965 139.924 C 282.828 137.456,282.050 134.960,281.511 132.055 C 280.535 126.792,279.890 124.912,278.229 122.493 C 277.017 120.727,274.800 115.783,274.800 114.847 C 274.800 114.618,273.795 112.955,272.566 111.150 C 271.337 109.346,269.907 106.908,269.388 105.734 C 268.868 104.559,267.561 102.653,266.484 101.499 C 265.406 100.344,264.075 98.725,263.526 97.900 C 260.823 93.843,246.729 79.476,242.847 76.821 C 241.611 75.976,240.060 74.709,239.400 74.007 C 238.740 73.305,236.968 72.008,235.463 71.126 C 233.958 70.243,231.603 68.736,230.230 67.777 C 228.858 66.817,226.378 65.510,224.719 64.871 C 223.061 64.233,220.916 63.170,219.952 62.510 C 216.969 60.466,215.020 59.654,210.592 58.607 C 207.665 57.916,205.291 57.042,203.059 55.836 C 199.141 53.718,197.811 53.433,187.000 52.398 C 182.380 51.955,177.430 51.418,176.000 51.205 C 173.571 50.842,161.730 50.716,160.400 51.039 M166.941 55.668 C 171.331 56.036,173.533 56.027,177.244 55.628 C 190.600 54.192,201.315 57.666,196.659 61.922 C 195.130 63.321,194.327 63.299,191.999 61.800 C 189.271 60.042,187.702 59.997,185.000 61.600 C 182.373 63.158,182.309 63.147,179.868 60.686 C 176.211 56.999,175.269 56.775,168.600 58.000 C 166.205 58.440,163.016 58.800,161.512 58.800 C 159.601 58.800,157.819 59.124,155.588 59.877 L 152.398 60.954 149.574 60.221 C 146.121 59.326,144.799 59.625,141.616 62.022 C 139.177 63.858,138.924 63.870,135.000 62.337 C 131.625 61.019,131.580 60.978,132.041 59.654 C 132.538 58.229,134.181 57.003,136.442 56.370 C 139.962 55.386,158.484 54.959,166.941 55.668 M128.167 61.547 C 130.251 61.999,129.690 63.171,125.125 67.900 C 122.623 70.492,121.937 70.537,118.324 68.354 C 115.402 66.589,115.018 65.809,116.224 64.087 C 117.763 61.890,123.810 60.604,128.167 61.547 M211.574 62.464 C 212.138 62.677,213.421 63.542,214.425 64.386 C 215.678 65.440,217.184 66.196,219.225 66.796 C 222.844 67.859,225.248 69.195,225.969 70.542 C 226.375 71.301,227.311 71.815,229.754 72.622 C 233.778 73.951,234.857 74.498,236.724 76.157 C 237.536 76.879,239.280 78.203,240.600 79.100 C 243.592 81.132,248.333 85.993,249.735 88.465 C 250.317 89.491,251.414 90.714,252.173 91.184 C 252.933 91.653,254.092 92.912,254.750 93.981 C 255.408 95.050,256.763 96.487,257.762 97.174 C 258.760 97.861,260.152 99.273,260.854 100.311 C 261.556 101.350,262.994 103.126,264.048 104.258 C 265.102 105.389,266.484 107.387,267.118 108.696 C 267.753 110.005,269.094 112.229,270.098 113.638 C 271.398 115.462,272.220 117.221,272.951 119.744 C 273.516 121.693,274.297 123.790,274.689 124.403 C 277.491 128.800,277.637 129.167,278.414 133.786 C 279.528 140.402,279.403 141.600,277.596 141.600 C 276.038 141.600,275.476 140.582,274.963 136.832 C 274.686 134.808,274.116 132.487,273.697 131.676 C 271.262 126.967,270.860 126.071,270.608 124.800 C 268.931 116.339,257.927 115.957,255.053 124.260 C 254.345 126.305,253.865 126.319,252.966 124.320 C 252.545 123.384,251.165 121.511,249.900 120.158 C 245.896 115.875,246.552 114.560,252.803 114.337 C 260.403 114.066,263.604 110.124,259.327 106.304 C 256.149 103.466,255.283 102.381,254.752 100.575 C 254.193 98.673,254.005 98.476,250.011 95.585 C 245.272 92.155,239.384 94.067,237.470 99.657 C 236.354 102.918,235.409 103.166,232.900 100.857 C 230.357 98.516,230.363 98.499,236.492 91.313 C 239.573 87.699,239.528 86.023,236.251 82.450 C 235.117 81.212,233.776 79.618,233.271 78.906 C 232.767 78.195,231.391 76.973,230.213 76.191 C 229.036 75.410,227.614 74.170,227.055 73.436 C 226.149 72.249,225.718 72.054,223.119 71.658 C 218.768 70.995,217.413 70.517,215.309 68.902 C 213.535 67.540,213.155 67.420,209.941 67.218 C 206.391 66.994,205.314 66.508,204.341 64.689 C 202.979 62.145,207.250 60.830,211.574 62.464 M174.572 63.955 C 174.876 64.446,174.023 65.081,172.598 65.425 C 171.939 65.584,170.732 66.048,169.916 66.457 C 168.204 67.314,168.000 67.350,168.000 66.790 C 168.000 66.565,168.405 66.208,168.900 65.997 C 169.395 65.786,170.520 65.173,171.400 64.635 C 173.085 63.604,174.206 63.363,174.572 63.955 M113.667 68.400 C 113.295 71.200,110.756 74.001,107.373 75.344 C 105.279 76.175,102.518 77.776,99.700 79.793 C 97.776 81.170,99.562 87.100,102.609 89.451 C 106.869 92.738,106.899 93.010,103.206 94.900 C 99.150 96.976,96.650 96.382,95.200 92.999 C 93.087 88.071,86.612 87.025,83.309 91.078 C 82.479 92.096,80.785 93.936,79.545 95.165 C 77.780 96.914,77.130 97.913,76.553 99.762 C 76.015 101.484,75.216 102.784,73.606 104.562 C 70.338 108.168,69.667 109.252,68.421 112.938 C 66.976 117.213,66.655 117.804,64.544 120.083 L 62.800 121.966 62.797 125.283 L 62.793 128.600 60.372 131.981 C 58.852 134.102,57.219 135.853,55.988 136.682 C 52.850 138.796,52.434 140.645,54.200 144.638 C 55.561 147.716,55.509 150.094,54.000 153.864 C 52.534 157.525,52.512 158.541,53.834 161.680 L 54.868 164.137 54.079 166.568 C 52.814 170.466,52.727 171.294,53.387 173.164 C 54.313 175.787,54.163 176.432,52.152 178.500 C 49.929 180.787,49.893 180.791,49.063 178.900 C 47.534 175.415,47.120 172.345,46.920 163.000 L 46.723 153.800 47.927 149.189 C 48.590 146.652,49.335 143.052,49.583 141.189 C 50.573 133.758,50.840 132.703,52.646 129.108 C 53.642 127.125,54.991 123.990,55.644 122.141 C 56.296 120.291,57.610 117.568,58.563 116.089 C 59.515 114.610,60.697 112.590,61.189 111.600 C 61.681 110.610,62.846 108.810,63.777 107.600 C 64.708 106.390,66.148 104.179,66.977 102.686 C 67.806 101.193,69.328 99.033,70.358 97.886 C 71.389 96.739,72.843 95.013,73.589 94.050 C 74.883 92.382,78.481 88.810,84.600 83.119 C 87.752 80.189,95.920 74.721,99.092 73.420 C 100.285 72.930,102.226 71.584,103.610 70.287 C 106.385 67.687,107.565 67.227,111.200 67.328 C 113.726 67.398,113.796 67.428,113.667 68.400 M158.826 72.414 C 160.096 73.094,159.782 74.000,158.276 74.000 C 156.754 74.000,155.344 73.137,155.762 72.461 C 156.117 71.888,157.795 71.862,158.826 72.414 M181.392 78.605 C 188.212 80.050,191.191 81.565,190.009 82.989 C 189.596 83.487,189.118 83.599,188.222 83.408 C 186.137 82.962,160.886 82.805,158.668 83.223 C 157.530 83.438,154.710 84.409,152.400 85.382 C 149.005 86.811,147.299 87.268,143.502 87.764 C 138.589 88.406,137.396 88.834,134.357 91.044 C 133.344 91.781,130.914 93.118,128.957 94.015 C 127.001 94.912,124.680 96.332,123.800 97.172 C 122.920 98.011,120.904 99.443,119.320 100.355 C 117.736 101.266,116.326 102.197,116.186 102.423 C 116.046 102.649,114.334 104.156,112.381 105.773 C 108.741 108.786,102.725 115.727,100.357 119.647 C 99.642 120.831,98.270 122.657,97.308 123.705 C 95.695 125.462,93.613 129.154,93.604 130.275 C 93.602 130.536,92.765 131.970,91.743 133.461 C 89.318 137.004,89.025 137.766,87.999 143.210 C 87.523 145.735,86.545 149.240,85.826 151.000 C 83.160 157.525,82.177 163.919,82.537 172.400 C 83.330 191.107,86.647 194.812,102.584 194.791 C 112.741 194.778,117.200 192.056,117.200 185.869 C 117.200 180.042,114.623 178.111,106.176 177.609 C 96.797 177.052,93.325 172.672,95.350 163.951 C 95.688 162.494,96.159 159.736,96.397 157.822 C 97.088 152.260,100.537 147.506,105.484 145.295 C 108.028 144.158,132.678 144.266,134.269 145.421 C 139.711 149.371,138.179 163.279,132.108 165.044 C 126.896 166.559,124.402 165.386,124.221 161.333 C 124.021 156.844,122.166 154.736,117.900 154.152 C 112.189 153.369,108.499 161.949,112.409 166.920 C 113.504 168.313,122.394 172.578,125.514 173.208 C 133.208 174.761,135.654 179.566,132.617 187.156 C 131.857 189.057,130.797 192.250,130.261 194.251 C 128.660 200.233,129.072 199.874,120.200 203.027 C 113.312 205.474,110.940 205.752,101.321 205.235 C 94.487 204.868,92.336 211.214,97.383 216.856 C 98.296 217.877,99.720 219.870,100.548 221.286 C 103.396 226.155,113.447 236.231,119.001 239.783 C 122.253 241.863,122.353 243.878,119.358 246.962 C 116.908 249.484,113.544 249.294,110.256 246.448 C 109.286 245.609,107.797 244.503,106.947 243.989 C 105.624 243.190,104.098 241.856,98.493 236.600 C 94.847 233.181,91.648 229.439,90.518 227.270 C 89.787 225.869,88.582 223.975,87.839 223.061 C 87.096 222.147,85.767 219.934,84.887 218.142 C 84.006 216.351,82.562 213.970,81.678 212.851 C 80.363 211.188,79.917 210.143,79.225 207.109 C 78.111 202.225,77.401 200.365,75.367 197.000 C 72.649 192.503,72.679 192.792,72.692 171.175 C 72.707 147.483,72.629 148.214,75.459 145.135 C 78.002 142.370,78.230 141.865,78.595 138.180 C 79.008 134.013,79.413 132.822,81.358 130.059 C 82.335 128.672,83.545 126.374,84.047 124.953 C 84.773 122.894,85.421 121.935,87.232 120.235 C 88.931 118.639,89.726 117.508,90.380 115.750 C 91.074 113.884,91.888 112.782,94.327 110.400 C 96.017 108.750,98.210 106.327,99.200 105.015 C 100.607 103.150,102.091 101.914,106.000 99.352 C 108.750 97.549,112.105 95.057,113.455 93.814 C 115.299 92.116,116.495 91.377,118.258 90.843 C 121.217 89.947,122.041 89.502,124.607 87.411 C 126.436 85.922,127.124 85.638,130.440 85.007 C 135.083 84.125,136.195 83.683,138.883 81.653 C 141.966 79.325,143.009 79.180,158.877 78.864 C 166.729 78.708,173.284 78.449,173.443 78.290 C 173.932 77.802,178.443 77.981,181.392 78.605 M204.144 85.953 C 205.979 87.477,201.243 88.251,198.008 86.957 C 196.402 86.314,196.134 86.001,196.700 85.431 C 197.212 84.914,203.417 85.350,204.144 85.953 M164.012 87.930 C 166.761 90.156,162.940 95.362,157.541 96.747 C 149.952 98.694,147.559 103.164,150.979 109.000 C 152.556 111.692,154.772 110.549,155.410 106.714 C 156.351 101.067,159.447 99.462,164.227 102.143 C 167.907 104.207,167.970 106.776,164.399 109.200 C 161.429 111.218,160.623 112.637,160.955 115.266 C 161.852 122.358,162.039 121.851,157.808 123.793 C 153.584 125.732,152.411 127.926,154.166 130.604 C 155.276 132.298,162.486 135.348,166.484 135.816 C 174.662 136.771,171.983 139.752,161.128 141.778 C 154.566 143.002,148.877 148.215,146.639 155.053 C 145.247 159.307,144.235 159.301,143.419 155.033 C 142.626 150.890,139.101 144.602,136.682 143.017 C 132.226 140.097,109.387 139.934,102.961 142.776 C 100.232 143.983,95.126 149.131,93.586 152.229 C 90.730 157.972,89.736 155.706,90.988 146.304 C 91.578 141.870,92.175 140.237,94.598 136.437 C 95.356 135.248,96.358 133.129,96.824 131.728 C 97.313 130.260,98.376 128.315,99.336 127.135 C 100.251 126.009,101.810 123.957,102.800 122.574 C 105.986 118.124,111.140 112.099,113.502 110.062 C 117.990 106.192,121.026 103.746,123.000 102.410 C 124.100 101.665,125.843 100.307,126.873 99.391 C 128.072 98.326,129.818 97.336,131.729 96.639 C 133.370 96.040,135.913 94.762,137.381 93.798 C 140.683 91.629,141.456 91.382,147.259 90.645 C 149.924 90.307,153.434 89.539,155.459 88.852 C 161.029 86.963,162.608 86.793,164.012 87.930 M181.873 89.232 C 187.771 92.196,188.439 98.586,183.359 103.451 C 180.807 105.895,180.524 106.507,180.795 109.000 C 180.879 109.772,182.168 111.104,185.583 113.946 C 187.996 115.955,187.742 117.910,184.505 122.259 L 183.568 123.518 184.484 124.554 C 184.988 125.124,186.658 126.090,188.196 126.700 C 193.449 128.786,191.691 130.389,184.120 130.418 C 181.119 130.429,178.824 130.640,177.819 130.998 C 176.060 131.625,165.907 131.467,162.200 130.756 C 157.548 129.864,157.311 128.016,161.603 126.109 C 164.802 124.687,165.004 124.087,163.800 119.600 C 162.585 115.073,163.461 113.152,167.563 111.353 C 172.471 109.202,171.873 104.583,166.322 101.774 C 162.541 99.861,161.630 98.316,163.129 96.354 C 163.529 95.829,164.526 94.286,165.343 92.924 C 168.546 87.586,175.504 86.032,181.873 89.232 M194.800 90.634 C 202.149 91.754,203.867 92.256,206.373 94.013 C 207.655 94.912,210.120 96.196,211.852 96.866 C 213.583 97.536,216.170 98.943,217.600 99.992 C 219.030 101.041,220.830 102.218,221.600 102.607 C 222.743 103.186,227.765 107.509,230.400 110.183 C 235.293 115.149,236.896 116.948,238.082 118.800 C 238.857 120.010,239.983 121.450,240.584 122.000 C 241.953 123.253,242.618 124.526,243.650 127.867 C 244.305 129.988,244.857 130.884,246.454 132.415 C 251.249 137.012,249.501 141.495,243.117 140.972 C 241.062 140.804,238.374 140.952,235.050 141.417 C 230.279 142.083,229.947 142.083,227.332 141.396 C 224.111 140.549,208.532 140.156,205.800 140.852 C 204.625 141.151,203.498 141.984,201.556 143.985 C 197.329 148.345,196.221 148.441,192.200 144.800 C 189.902 142.719,188.938 142.307,184.328 141.432 C 175.860 139.826,176.512 136.061,185.403 135.220 C 196.666 134.154,201.309 126.031,192.173 123.375 C 188.485 122.303,187.924 120.929,190.003 118.060 C 191.443 116.071,192.224 115.979,195.600 117.400 C 198.589 118.658,200.151 118.690,200.977 117.511 C 201.918 116.168,201.781 115.790,199.424 113.226 C 196.635 110.192,196.184 108.172,196.991 102.336 C 197.687 97.310,194.576 94.445,191.741 97.500 C 190.663 98.662,190.644 99.114,191.442 104.716 C 191.878 107.773,190.415 112.400,189.011 112.400 C 187.023 112.400,183.200 108.516,183.200 106.496 C 183.200 106.051,183.834 104.813,184.608 103.744 C 186.847 100.652,187.200 99.569,187.200 95.787 C 187.200 89.774,187.558 89.531,194.800 90.634 M76.177 114.489 C 77.037 115.716,76.962 116.274,75.783 117.453 C 74.553 118.683,73.600 118.191,73.600 116.325 C 73.600 113.821,75.007 112.818,76.177 114.489 M264.800 124.000 C 265.354 125.034,264.671 126.400,263.600 126.400 C 262.435 126.400,261.907 125.111,262.642 124.062 C 263.397 122.984,264.243 122.959,264.800 124.000 M181.278 144.586 C 187.255 145.258,188.223 145.683,190.492 148.633 C 194.723 154.134,194.630 153.570,192.444 160.481 C 190.377 167.012,190.103 168.578,189.593 176.772 C 189.022 185.938,188.468 188.412,185.702 194.140 C 182.897 199.950,182.026 200.788,177.552 201.970 C 175.708 202.458,173.210 203.222,172.000 203.669 C 168.158 205.088,159.059 205.198,154.764 203.877 C 152.914 203.308,150.405 202.570,149.189 202.236 C 144.350 200.908,143.665 198.667,144.568 187.115 C 145.293 177.841,145.831 174.887,147.943 168.600 C 149.547 163.823,150.391 159.892,150.397 157.173 C 150.406 153.071,153.697 148.748,158.984 145.892 C 161.889 144.324,173.099 143.667,181.278 144.586 M227.050 145.026 C 229.523 145.600,230.138 145.596,234.375 144.980 C 239.814 144.190,248.353 144.442,249.900 145.439 C 250.989 146.140,251.052 147.493,250.224 152.400 C 249.908 154.270,249.453 158.410,249.212 161.600 C 248.638 169.183,247.869 173.264,246.145 177.866 C 241.273 190.872,243.438 199.699,250.746 196.623 C 254.031 195.240,254.800 195.590,254.800 198.468 C 254.800 203.493,253.141 204.225,241.000 204.556 C 227.056 204.936,226.381 204.212,227.981 190.600 C 228.188 188.840,228.370 185.150,228.386 182.400 C 228.426 175.663,228.949 172.456,230.608 168.783 C 234.341 160.515,231.322 156.072,225.148 160.747 C 220.572 164.211,220.209 165.421,219.398 179.940 C 219.074 185.736,218.618 191.190,218.384 192.059 C 217.704 194.586,212.739 203.622,211.633 204.346 C 210.396 205.157,202.477 205.190,200.984 204.391 C 198.139 202.869,198.432 194.251,201.592 186.485 C 203.157 182.641,203.884 178.846,204.215 172.800 C 204.366 170.050,204.722 165.748,205.007 163.241 C 205.426 159.541,205.428 158.334,205.015 156.841 C 203.050 149.738,203.056 149.804,204.101 147.053 C 205.016 144.643,206.062 144.403,215.675 144.401 C 222.135 144.400,225.040 144.560,227.050 145.026 M283.164 150.596 C 284.191 152.745,284.049 181.303,283.000 183.400 C 281.910 185.580,280.961 185.624,277.643 183.653 C 273.720 181.323,273.485 180.937,275.206 179.656 C 280.584 175.656,282.122 171.894,280.566 166.544 C 279.963 164.469,279.974 164.230,280.790 161.543 C 281.781 158.281,281.643 157.131,279.986 154.845 C 278.182 152.354,278.116 151.510,279.627 150.239 C 281.216 148.902,282.412 149.022,283.164 150.596 M62.727 153.147 C 62.865 154.552,60.999 157.998,60.100 157.999 C 58.949 158.001,59.674 154.006,61.137 152.290 C 61.977 151.305,62.577 151.628,62.727 153.147 M168.087 155.424 C 166.424 156.589,165.978 158.165,165.565 164.318 C 165.103 171.217,164.459 174.314,162.801 177.597 C 158.217 186.680,160.722 199.614,166.143 194.853 C 167.931 193.283,173.366 180.079,173.958 175.869 C 174.643 171.000,174.934 160.382,174.434 158.525 C 173.601 155.433,170.345 153.842,168.087 155.424 M263.815 158.023 C 263.958 158.256,263.619 159.111,263.060 159.923 C 260.787 163.229,260.349 167.149,261.401 174.805 C 262.146 180.234,261.959 182.000,260.640 182.000 C 257.912 182.000,258.602 161.492,261.434 158.362 C 262.189 157.528,263.402 157.356,263.815 158.023 M118.538 159.669 C 119.094 160.557,118.429 163.179,117.500 163.759 C 115.874 164.774,114.475 161.702,115.604 159.593 C 116.141 158.590,117.891 158.635,118.538 159.669 M254.635 170.400 C 255.351 186.768,255.273 187.334,251.998 189.401 C 247.647 192.148,247.532 190.475,251.163 177.299 C 251.602 175.704,252.150 172.914,252.381 171.099 C 253.867 159.390,254.149 159.303,254.635 170.400 M142.800 166.772 C 142.800 170.318,141.229 182.503,140.299 186.169 C 139.429 189.600,138.944 188.833,138.682 183.615 C 138.397 177.962,137.730 176.078,134.967 173.124 C 132.584 170.575,132.705 169.927,135.984 167.686 C 137.405 166.715,139.362 165.221,140.333 164.367 C 142.610 162.362,142.800 162.548,142.800 166.772 M92.400 175.007 C 97.353 179.949,98.067 180.273,105.076 180.760 C 112.117 181.249,114.606 183.820,112.118 188.032 C 110.463 190.833,97.331 191.929,92.687 189.653 C 89.385 188.035,85.980 177.402,87.050 172.050 C 87.419 170.207,87.802 170.419,92.400 175.007 M290.456 207.259 C 289.717 207.472,289.210 207.743,289.329 207.863 C 289.647 208.180,292.757 207.593,293.022 207.165 C 293.302 206.711,292.223 206.751,290.456 207.259 M271.483 215.414 C 271.311 217.083,270.907 218.112,269.841 219.596 C 269.063 220.679,267.680 223.058,266.768 224.882 C 265.855 226.707,264.529 228.920,263.821 229.800 C 263.113 230.680,261.895 232.390,261.114 233.600 C 258.460 237.715,242.901 252.818,238.367 255.681 C 236.955 256.573,235.277 257.741,234.637 258.278 C 233.997 258.815,232.018 259.987,230.238 260.881 C 228.459 261.776,226.282 263.091,225.401 263.804 C 223.394 265.429,222.123 266.060,218.600 267.180 C 217.060 267.669,214.722 268.729,213.405 269.535 C 209.964 271.639,209.262 271.890,203.706 272.995 C 200.123 273.709,197.602 274.496,194.818 275.772 C 188.798 278.532,188.087 278.600,165.400 278.600 C 141.457 278.600,138.827 278.256,137.151 274.900 L 136.501 273.601 134.242 276.024 C 132.999 277.357,132.078 278.603,132.196 278.793 C 133.153 280.342,146.381 281.371,165.200 281.360 C 186.988 281.347,193.284 280.707,198.171 278.005 C 200.833 276.533,204.294 275.409,208.000 274.810 C 211.426 274.258,214.317 273.059,216.527 271.276 C 218.053 270.046,218.598 269.818,222.871 268.627 C 224.517 268.169,225.726 267.462,227.271 266.055 C 229.648 263.889,231.006 263.097,233.491 262.429 C 234.581 262.136,236.004 261.217,237.491 259.847 C 238.761 258.677,240.520 257.261,241.400 256.700 C 243.011 255.673,247.574 251.553,249.800 249.116 C 250.460 248.393,251.889 246.991,252.976 246.001 C 254.063 245.010,255.503 243.580,256.176 242.822 C 256.849 242.064,258.420 240.444,259.668 239.222 C 260.915 238.000,262.218 236.428,262.563 235.729 C 262.908 235.030,264.241 233.410,265.525 232.129 C 267.325 230.334,268.119 229.138,268.988 226.915 C 269.668 225.173,270.885 223.119,272.057 221.732 C 274.329 219.046,274.652 216.950,273.167 214.547 C 272.026 212.701,271.749 212.843,271.483 215.414 M242.832 220.205 C 241.640 220.709,239.505 221.245,238.089 221.397 C 236.203 221.599,235.632 221.792,235.956 222.116 C 237.401 223.561,228.875 233.524,222.800 237.489 C 221.590 238.279,219.769 239.614,218.754 240.455 C 217.573 241.433,215.627 242.432,213.354 243.227 C 211.399 243.910,208.444 245.258,206.787 246.222 C 202.745 248.572,201.419 248.992,195.583 249.769 C 192.843 250.134,188.440 250.948,185.800 251.578 C 182.072 252.468,179.615 252.778,174.800 252.967 C 167.428 253.257,166.394 252.941,169.724 251.418 C 172.377 250.204,172.781 249.694,170.304 250.685 C 167.998 251.608,165.580 252.987,164.494 253.998 C 164.000 254.459,162.201 255.578,160.497 256.485 C 157.023 258.334,152.460 262.295,153.391 262.652 C 153.703 262.772,154.244 263.728,154.593 264.777 C 155.943 268.844,157.047 269.183,167.609 268.775 C 174.702 268.502,176.256 268.321,179.200 267.427 C 183.258 266.194,189.477 264.717,195.080 263.653 C 198.478 263.008,199.749 262.540,202.680 260.853 C 204.616 259.739,207.398 258.459,208.863 258.009 C 210.328 257.559,212.398 256.567,213.463 255.805 C 214.528 255.044,216.360 253.831,217.533 253.110 C 218.706 252.390,220.686 251.030,221.933 250.088 C 223.180 249.146,225.460 247.506,227.000 246.443 C 229.318 244.842,232.814 241.799,237.281 237.493 C 237.684 237.104,238.792 235.574,239.741 234.093 C 240.691 232.612,242.220 230.531,243.140 229.469 C 246.004 226.161,246.774 223.588,245.883 220.300 C 245.536 219.018,245.634 219.022,242.832 220.205 M82.794 228.657 C 83.341 229.286,83.935 229.980,84.116 230.200 C 84.296 230.420,84.180 229.970,83.857 229.200 C 83.535 228.430,82.940 227.736,82.536 227.657 C 81.908 227.535,81.946 227.682,82.794 228.657 M217.914 246.738 C 218.906 247.368,217.885 248.418,214.910 249.830 C 213.258 250.614,211.055 251.929,210.013 252.752 C 208.972 253.575,206.525 254.851,204.576 255.586 C 202.626 256.322,199.958 257.553,198.646 258.322 C 195.465 260.186,193.605 260.699,187.417 261.417 C 184.548 261.750,180.220 262.502,177.800 263.088 C 169.430 265.115,164.129 263.989,165.710 260.519 C 166.434 258.929,168.529 258.335,175.363 257.781 C 182.433 257.207,183.581 256.998,189.277 255.240 C 191.410 254.583,196.291 253.409,200.126 252.632 C 208.313 250.973,208.778 250.816,211.399 248.823 C 214.166 246.720,216.638 245.929,217.914 246.738 " stroke="none" fill="#75c492" fill-rule="evenodd"></path><path id="path4" d="M352.800 0.753 C 352.800 1.193,352.980 1.664,353.200 1.800 C 353.420 1.936,353.600 1.687,353.600 1.247 C 353.600 0.807,353.420 0.336,353.200 0.200 C 352.980 0.064,352.800 0.313,352.800 0.753 M159.600 48.396 C 151.508 49.563,141.761 50.752,136.451 51.220 C 130.721 51.725,127.553 52.608,124.222 54.628 C 122.629 55.594,120.323 56.457,117.234 57.242 C 113.516 58.188,112.042 58.791,109.612 60.360 C 107.956 61.430,105.337 62.776,103.794 63.352 C 102.250 63.927,100.091 65.139,98.995 66.045 C 97.899 66.950,95.472 68.464,93.601 69.408 C 91.731 70.353,89.570 71.790,88.800 72.601 C 88.030 73.412,86.590 74.625,85.600 75.295 C 83.580 76.662,81.149 78.930,74.287 85.848 C 65.791 94.415,64.528 95.779,63.397 97.600 C 62.782 98.590,61.509 100.390,60.568 101.600 C 59.627 102.810,58.214 105.219,57.427 106.953 C 56.641 108.687,55.378 110.792,54.621 111.629 C 52.849 113.590,52.324 114.653,51.055 118.837 C 50.417 120.942,49.525 122.880,48.753 123.837 C 46.877 126.164,46.140 128.146,45.423 132.800 C 44.499 138.797,43.322 143.293,41.653 147.200 L 40.200 150.600 40.200 167.000 L 40.200 183.400 42.145 187.522 C 43.909 191.259,44.174 192.212,44.982 197.722 C 45.930 204.181,46.620 206.234,48.914 209.428 C 49.890 210.785,50.694 212.672,51.433 215.334 C 52.347 218.630,52.792 219.549,54.265 221.187 C 57.948 225.284,57.944 228.034,54.251 230.762 C 47.824 235.510,48.124 241.115,55.054 245.764 C 59.181 248.532,76.800 265.544,76.800 266.761 C 76.800 266.925,77.807 268.216,79.037 269.630 C 80.268 271.043,81.965 273.550,82.809 275.200 C 83.653 276.850,84.989 279.189,85.779 280.398 C 86.587 281.635,87.800 284.466,88.552 286.870 C 92.148 298.367,97.875 302.224,103.835 297.161 C 105.136 296.056,107.453 294.491,108.983 293.683 C 110.514 292.874,112.699 291.400,113.839 290.407 C 114.978 289.413,116.951 288.060,118.222 287.400 C 119.493 286.740,121.358 285.474,122.367 284.586 C 126.308 281.115,127.563 280.699,131.835 281.448 C 140.198 282.913,166.705 283.537,181.800 282.624 C 195.066 281.821,195.644 281.714,200.576 279.166 C 203.774 277.514,205.353 276.967,208.647 276.373 C 213.389 275.518,214.500 275.102,217.884 272.909 C 219.251 272.024,221.815 270.797,223.583 270.181 C 225.831 269.399,227.463 268.499,229.013 267.189 C 230.279 266.119,232.416 264.849,233.995 264.230 C 235.836 263.507,237.581 262.413,239.213 260.957 C 240.562 259.754,242.325 258.351,243.132 257.840 C 245.199 256.532,262.876 238.942,264.104 236.972 C 264.662 236.077,265.880 234.637,266.810 233.772 C 267.936 232.726,269.071 230.995,270.201 228.600 C 271.136 226.620,272.560 224.190,273.366 223.200 C 274.172 222.210,275.449 219.960,276.204 218.200 C 278.715 212.344,282.880 209.285,287.251 210.085 C 289.510 210.498,290.380 210.448,298.339 209.449 C 304.100 208.725,305.736 208.008,305.922 206.127 C 306.184 203.469,301.828 202.320,291.212 202.246 L 284.624 202.200 284.118 201.200 C 283.301 199.587,283.496 198.674,285.443 194.983 C 288.122 189.903,288.384 187.971,288.658 171.200 C 289.036 148.062,288.490 142.630,285.214 136.962 C 283.859 134.616,283.495 133.462,282.800 129.308 C 281.803 123.350,281.906 123.639,279.538 120.200 C 278.478 118.660,277.134 116.050,276.553 114.400 C 275.972 112.750,274.644 110.136,273.602 108.592 C 272.559 107.047,271.224 104.831,270.633 103.666 C 270.043 102.502,268.788 100.795,267.844 99.874 C 266.899 98.953,265.297 96.903,264.283 95.318 C 261.901 91.595,248.364 77.878,245.000 75.780 C 243.680 74.957,241.602 73.342,240.382 72.192 C 239.162 71.041,237.363 69.691,236.383 69.191 C 235.404 68.692,233.660 67.515,232.509 66.577 C 231.357 65.639,229.557 64.559,228.507 64.176 C 224.745 62.804,223.229 62.048,221.130 60.499 C 218.670 58.683,217.991 58.404,212.670 57.023 C 210.349 56.421,207.728 55.409,206.270 54.552 C 202.612 52.402,201.329 52.061,193.626 51.183 C 185.757 50.287,182.424 49.778,179.200 48.983 C 173.685 47.623,166.463 47.406,159.600 48.396 M176.000 51.205 C 177.430 51.418,182.380 51.955,187.000 52.398 C 197.811 53.433,199.141 53.718,203.059 55.836 C 205.291 57.042,207.665 57.916,210.592 58.607 C 215.020 59.654,216.969 60.466,219.952 62.510 C 220.916 63.170,223.061 64.233,224.719 64.871 C 226.378 65.510,228.858 66.817,230.230 67.777 C 231.603 68.736,233.958 70.243,235.463 71.126 C 236.968 72.008,238.740 73.305,239.400 74.007 C 240.060 74.709,241.611 75.976,242.847 76.821 C 246.729 79.476,260.823 93.843,263.526 97.900 C 264.075 98.725,265.406 100.344,266.484 101.499 C 267.561 102.653,268.868 104.559,269.388 105.734 C 269.907 106.908,271.337 109.346,272.566 111.150 C 273.795 112.955,274.800 114.618,274.800 114.847 C 274.800 115.783,277.017 120.727,278.229 122.493 C 279.890 124.912,280.535 126.792,281.511 132.055 C 282.050 134.960,282.828 137.456,283.965 139.924 C 286.829 146.141,286.952 147.198,286.973 165.800 C 286.995 184.946,286.844 186.329,284.097 192.200 C 280.160 200.612,281.331 204.159,288.059 204.210 C 292.031 204.240,294.000 204.833,294.000 205.997 C 294.000 207.278,292.114 207.806,287.897 207.706 C 282.216 207.572,278.117 210.459,275.226 216.631 C 274.513 218.154,273.128 220.430,272.147 221.689 C 271.167 222.947,269.764 225.296,269.029 226.909 C 266.236 233.037,248.717 252.145,241.348 257.102 C 240.496 257.675,238.841 258.919,237.669 259.867 C 236.497 260.815,234.067 262.285,232.269 263.133 C 230.471 263.982,228.105 265.423,227.011 266.335 C 225.703 267.426,223.975 268.342,221.960 269.013 C 220.276 269.574,217.841 270.672,216.549 271.453 C 212.691 273.785,212.260 273.948,207.129 275.021 C 203.613 275.756,201.168 276.550,198.600 277.790 C 196.620 278.746,194.280 279.725,193.400 279.965 C 185.546 282.107,143.591 281.809,134.427 279.545 C 129.269 278.271,125.194 279.434,120.220 283.601 C 119.132 284.513,117.422 285.725,116.420 286.293 C 115.419 286.862,113.775 288.005,112.766 288.832 C 111.757 289.660,109.382 291.252,107.488 292.371 C 105.594 293.490,103.926 294.596,103.782 294.829 C 102.281 297.257,98.226 298.270,96.299 296.698 C 94.745 295.430,90.973 288.415,89.745 284.507 C 89.176 282.696,88.112 280.266,87.380 279.107 C 86.648 277.948,85.053 275.361,83.836 273.358 C 82.618 271.355,81.316 269.465,80.943 269.158 C 80.570 268.851,79.328 267.340,78.181 265.800 C 75.391 262.051,61.527 248.175,57.690 245.292 C 51.340 240.521,50.683 236.302,55.682 232.389 C 60.157 228.887,60.317 224.913,56.191 219.800 C 54.521 217.731,53.910 216.461,52.820 212.800 C 52.329 211.150,51.056 208.270,49.991 206.400 C 47.720 202.414,47.455 201.494,46.592 194.600 C 46.053 190.293,45.654 188.713,44.271 185.400 L 42.600 181.400 42.600 166.600 L 42.600 151.800 44.062 148.200 C 45.147 145.527,45.790 142.951,46.557 138.200 C 47.870 130.067,47.987 129.683,50.395 125.601 C 51.498 123.731,52.400 122.041,52.400 121.844 C 52.400 120.057,54.297 115.661,56.061 113.358 C 57.177 111.902,58.592 109.606,59.204 108.255 C 59.816 106.905,61.102 104.720,62.061 103.400 C 63.020 102.080,64.328 100.190,64.967 99.200 C 69.752 91.793,88.976 73.986,95.405 71.007 C 96.947 70.292,99.182 68.876,100.372 67.861 C 101.562 66.845,103.360 65.718,104.368 65.355 C 107.217 64.330,110.788 62.579,113.200 61.025 C 114.793 59.998,116.449 59.383,119.200 58.795 C 121.744 58.251,124.322 57.330,127.000 56.009 C 132.341 53.374,132.321 53.377,147.000 52.206 C 154.040 51.644,160.070 51.119,160.400 51.039 C 161.730 50.716,173.571 50.842,176.000 51.205 M171.400 64.635 C 170.520 65.173,169.395 65.786,168.900 65.997 C 168.405 66.208,168.000 66.565,168.000 66.790 C 168.000 67.350,168.204 67.314,169.916 66.457 C 170.732 66.048,171.939 65.584,172.598 65.425 C 174.023 65.081,174.876 64.446,174.572 63.955 C 174.206 63.363,173.085 63.604,171.400 64.635 M173.443 78.290 C 173.284 78.449,166.729 78.708,158.877 78.864 C 143.009 79.180,141.966 79.325,138.883 81.653 C 136.195 83.683,135.083 84.125,130.440 85.007 C 127.124 85.638,126.436 85.922,124.607 87.411 C 122.041 89.502,121.217 89.947,118.258 90.843 C 116.495 91.377,115.299 92.116,113.455 93.814 C 112.105 95.057,108.750 97.549,106.000 99.352 C 102.091 101.914,100.607 103.150,99.200 105.015 C 98.210 106.327,96.017 108.750,94.327 110.400 C 91.888 112.782,91.074 113.884,90.380 115.750 C 89.726 117.508,88.931 118.639,87.232 120.235 C 85.421 121.935,84.773 122.894,84.047 124.953 C 83.545 126.374,82.335 128.672,81.358 130.059 C 79.413 132.822,79.008 134.013,78.595 138.180 C 78.230 141.865,78.002 142.370,75.459 145.135 C 72.629 148.214,72.707 147.483,72.692 171.175 C 72.679 192.792,72.649 192.503,75.367 197.000 C 77.401 200.365,78.111 202.225,79.225 207.109 C 79.917 210.143,80.363 211.188,81.678 212.851 C 82.562 213.970,84.006 216.351,84.887 218.142 C 85.767 219.934,87.096 222.147,87.839 223.061 C 88.582 223.975,89.787 225.869,90.518 227.270 C 91.648 229.439,94.847 233.181,98.493 236.600 C 104.098 241.856,105.624 243.190,106.947 243.989 C 107.797 244.503,109.286 245.609,110.256 246.448 C 113.544 249.294,116.908 249.484,119.358 246.962 C 122.353 243.878,122.253 241.863,119.001 239.783 C 113.447 236.231,103.396 226.155,100.548 221.286 C 99.720 219.870,98.296 217.877,97.383 216.856 C 92.336 211.214,94.487 204.868,101.321 205.235 C 110.940 205.752,113.312 205.474,120.200 203.027 C 129.072 199.874,128.660 200.233,130.261 194.251 C 130.797 192.250,131.857 189.057,132.617 187.156 C 135.654 179.566,133.208 174.761,125.514 173.208 C 122.394 172.578,113.504 168.313,112.409 166.920 C 108.499 161.949,112.189 153.369,117.900 154.152 C 122.166 154.736,124.021 156.844,124.221 161.333 C 124.402 165.386,126.896 166.559,132.108 165.044 C 138.179 163.279,139.711 149.371,134.269 145.421 C 132.678 144.266,108.028 144.158,105.484 145.295 C 100.537 147.506,97.088 152.260,96.397 157.822 C 96.159 159.736,95.688 162.494,95.350 163.951 C 93.325 172.672,96.797 177.052,106.176 177.609 C 114.623 178.111,117.200 180.042,117.200 185.869 C 117.200 192.056,112.741 194.778,102.584 194.791 C 86.647 194.812,83.330 191.107,82.537 172.400 C 82.177 163.919,83.160 157.525,85.826 151.000 C 86.545 149.240,87.523 145.735,87.999 143.210 C 89.025 137.766,89.318 137.004,91.743 133.461 C 92.765 131.970,93.602 130.536,93.604 130.275 C 93.613 129.154,95.695 125.462,97.308 123.705 C 98.270 122.657,99.642 120.831,100.357 119.647 C 102.725 115.727,108.741 108.786,112.381 105.773 C 114.334 104.156,116.046 102.649,116.186 102.423 C 116.326 102.197,117.736 101.266,119.320 100.355 C 120.904 99.443,122.920 98.011,123.800 97.172 C 124.680 96.332,127.001 94.912,128.957 94.015 C 130.914 93.118,133.344 91.781,134.357 91.044 C 137.396 88.834,138.589 88.406,143.502 87.764 C 147.299 87.268,149.005 86.811,152.400 85.382 C 154.710 84.409,157.530 83.438,158.668 83.223 C 160.886 82.805,186.137 82.962,188.222 83.408 C 190.186 83.827,190.928 82.613,189.473 81.361 C 187.126 79.343,174.760 76.973,173.443 78.290 M353.697 211.876 C 353.609 331.583,353.498 346.251,352.697 343.902 C 352.603 343.626,352.541 344.210,352.561 345.200 C 352.640 349.246,349.888 352.056,344.800 353.126 L 343.000 353.504 344.636 353.552 C 347.413 353.634,350.973 351.576,352.031 349.277 C 352.506 348.245,353.099 347.040,353.348 346.600 C 353.782 345.832,354.190 165.782,353.900 103.000 C 353.842 90.240,353.750 139.234,353.697 211.876 M196.700 85.431 C 196.134 86.001,196.402 86.314,198.008 86.957 C 201.243 88.251,205.979 87.477,204.144 85.953 C 203.417 85.350,197.212 84.914,196.700 85.431 M174.874 108.100 C 174.369 109.983,174.850 111.000,176.246 111.000 C 177.320 111.000,177.397 110.896,177.355 109.507 C 177.274 106.812,175.491 105.801,174.874 108.100 M168.497 113.991 C 166.412 114.937,166.000 115.895,166.000 119.795 C 166.000 123.467,165.185 124.606,161.413 126.210 C 158.405 127.488,157.763 128.511,159.253 129.649 C 161.480 131.350,164.234 131.443,183.800 130.477 C 191.973 130.073,193.466 128.791,188.196 126.703 C 183.345 124.781,182.879 123.838,183.844 117.897 C 184.137 116.092,183.282 114.536,181.790 114.162 C 180.269 113.780,179.607 114.605,179.553 116.949 C 179.399 123.598,175.849 123.894,173.944 117.418 C 172.710 113.223,171.654 112.558,168.497 113.991 M74.014 114.374 C 72.740 116.754,74.105 119.131,75.783 117.453 C 76.962 116.274,77.037 115.716,76.177 114.489 C 75.411 113.395,74.562 113.349,74.014 114.374 M171.293 116.300 C 172.150 117.272,174.885 125.391,174.728 126.496 C 174.526 127.919,172.256 128.873,169.494 128.696 C 166.365 128.495,166.131 128.183,166.941 125.295 C 167.304 124.004,167.600 121.623,167.600 120.005 C 167.600 116.028,169.432 114.189,171.293 116.300 M262.642 124.062 C 261.907 125.111,262.435 126.400,263.600 126.400 C 264.671 126.400,265.354 125.034,264.800 124.000 C 264.243 122.959,263.397 122.984,262.642 124.062 M165.048 144.638 C 159.607 145.263,158.893 145.573,154.635 149.159 C 151.400 151.882,150.404 153.766,150.397 157.173 C 150.391 159.892,149.547 163.823,147.943 168.600 C 145.831 174.887,145.293 177.841,144.568 187.115 C 143.665 198.667,144.350 200.908,149.189 202.236 C 150.405 202.570,152.914 203.308,154.764 203.877 C 159.059 205.198,168.158 205.088,172.000 203.669 C 173.210 203.222,175.708 202.458,177.552 201.970 C 184.808 200.052,188.643 192.027,189.593 176.772 C 190.103 168.578,190.377 167.012,192.444 160.481 C 194.630 153.570,194.723 154.134,190.492 148.633 C 188.223 145.683,187.255 145.258,181.278 144.586 C 175.175 143.900,171.366 143.913,165.048 144.638 M205.768 145.154 C 203.673 146.432,202.943 149.296,203.860 152.642 C 204.215 153.939,204.735 155.828,205.015 156.841 C 205.428 158.334,205.426 159.541,205.007 163.241 C 204.722 165.748,204.366 170.050,204.215 172.800 C 203.884 178.846,203.157 182.641,201.592 186.485 C 198.432 194.251,198.139 202.869,200.984 204.391 C 202.477 205.190,210.396 205.157,211.633 204.346 C 212.739 203.622,217.704 194.586,218.384 192.059 C 218.618 191.190,219.074 185.736,219.398 179.940 C 220.209 165.421,220.572 164.211,225.148 160.747 C 231.322 156.072,234.341 160.515,230.608 168.783 C 228.949 172.456,228.426 175.663,228.386 182.400 C 228.370 185.150,228.188 188.840,227.981 190.600 C 226.863 200.115,227.220 201.997,230.532 204.028 C 232.277 205.099,249.126 204.766,251.829 203.607 C 254.415 202.497,255.867 197.924,254.171 196.229 C 253.384 195.441,253.617 195.414,250.746 196.623 C 243.438 199.699,241.273 190.872,246.145 177.866 C 247.869 173.264,248.638 169.183,249.212 161.600 C 249.453 158.410,249.908 154.270,250.224 152.400 C 251.052 147.493,250.989 146.140,249.900 145.439 C 248.353 144.442,239.814 144.190,234.375 144.980 C 230.138 145.596,229.523 145.600,227.050 145.026 C 222.778 144.035,207.452 144.128,205.768 145.154 M61.137 152.290 C 60.126 153.476,59.403 155.857,59.554 157.500 C 59.648 158.526,60.636 157.942,61.727 156.215 C 63.362 153.626,62.858 150.271,61.137 152.290 M172.762 155.829 C 174.902 157.630,175.385 165.721,173.958 175.869 C 173.366 180.079,167.931 193.283,166.143 194.853 C 160.722 199.614,158.217 186.680,162.801 177.597 C 164.459 174.314,165.103 171.217,165.565 164.318 C 166.157 155.487,168.737 152.443,172.762 155.829 M261.434 158.362 C 258.602 161.492,257.912 182.000,260.640 182.000 C 261.959 182.000,262.146 180.234,261.401 174.805 C 260.349 167.149,260.787 163.229,263.060 159.923 C 264.506 157.822,263.124 156.495,261.434 158.362 M214.600 246.883 C 213.940 247.113,212.500 247.987,211.399 248.823 C 208.778 250.816,208.313 250.973,200.126 252.632 C 196.291 253.409,191.410 254.583,189.277 255.240 C 183.581 256.998,182.433 257.207,175.363 257.781 C 168.529 258.335,166.434 258.929,165.710 260.519 C 164.129 263.989,169.430 265.115,177.800 263.088 C 180.220 262.502,184.548 261.750,187.417 261.417 C 193.605 260.699,195.465 260.186,198.646 258.322 C 199.958 257.553,202.626 256.322,204.576 255.586 C 206.525 254.851,208.972 253.575,210.013 252.752 C 211.055 251.929,213.258 250.614,214.910 249.830 C 219.515 247.645,219.263 245.253,214.600 246.883 M35.057 286.651 C 33.119 287.701,31.697 289.197,30.598 291.343 C 28.246 295.933,26.851 297.147,23.886 297.182 C 20.182 297.226,18.742 299.790,19.372 305.221 C 19.611 307.277,19.534 308.184,19.016 309.421 C 17.530 312.971,18.327 316.060,21.178 317.800 C 23.062 318.950,25.930 321.559,26.651 322.779 C 27.550 324.301,29.381 325.200,31.582 325.200 C 34.968 325.200,35.817 324.864,36.786 323.139 C 37.278 322.264,37.881 321.657,38.137 321.779 C 38.392 321.900,38.915 322.111,39.300 322.246 C 39.685 322.382,40.000 322.730,40.000 323.019 C 40.000 323.308,40.405 323.606,40.900 323.682 C 41.395 323.757,41.760 324.026,41.710 324.279 C 41.592 324.886,46.262 324.612,47.040 323.967 C 47.348 323.711,47.600 323.651,47.600 323.832 C 47.600 324.014,48.317 323.462,49.194 322.606 C 53.141 318.751,51.845 314.569,45.613 311.054 C 39.295 307.491,39.749 305.018,47.197 302.420 L 50.594 301.236 51.692 302.288 C 52.296 302.867,52.878 303.624,52.984 303.970 C 53.282 304.946,54.450 311.325,54.456 312.017 C 54.463 312.754,55.939 312.948,56.705 312.313 C 59.584 309.924,59.165 302.371,55.988 299.400 C 55.283 298.740,53.944 296.580,53.013 294.600 C 50.757 289.800,47.643 287.218,44.085 287.196 C 43.708 287.193,42.516 286.923,41.436 286.596 C 38.941 285.839,36.518 285.860,35.057 286.651 M0.200 353.200 C 0.336 353.420,0.842 353.597,1.324 353.594 C 2.036 353.589,2.088 353.515,1.600 353.200 C 0.812 352.691,-0.115 352.691,0.200 353.200 M105.267 353.900 C 148.754 353.956,220.034 353.956,263.667 353.900 C 307.300 353.844,271.720 353.798,184.600 353.798 C 97.480 353.798,61.780 353.844,105.267 353.900 " stroke="none" fill="#22a256" fill-rule="evenodd"></path></g></svg>